<mxfile host="app.diagrams.net" modified="2023-08-18T07:31:12.849Z" agent="Mozilla/5.0 (Windows NT 10.0; Win64; x64) AppleWebKit/537.36 (KHTML, like Gecko) Chrome/116.0.0.0 Safari/537.36" etag="5bY-j96JQMkhxoYxqyWm" version="21.6.8" type="google">
  <diagram name="Page-1" id="aF_Fr2iP6Nr6bUPQ2QLQ">
    <mxGraphModel grid="1" page="1" gridSize="10" guides="1" tooltips="1" connect="1" arrows="1" fold="1" pageScale="1" pageWidth="827" pageHeight="1169" math="0" shadow="0">
      <root>
        <mxCell id="0" />
        <mxCell id="1" parent="0" />
        <mxCell id="E5yM7RJLVlbiAVndkckx-27" style="edgeStyle=orthogonalEdgeStyle;rounded=0;orthogonalLoop=1;jettySize=auto;html=1;exitX=1;exitY=0.5;exitDx=0;exitDy=0;entryX=0.007;entryY=0.522;entryDx=0;entryDy=0;entryPerimeter=0;" edge="1" parent="1" source="E5yM7RJLVlbiAVndkckx-5" target="E5yM7RJLVlbiAVndkckx-25">
          <mxGeometry relative="1" as="geometry">
            <Array as="points" />
          </mxGeometry>
        </mxCell>
        <mxCell id="E5yM7RJLVlbiAVndkckx-29" style="edgeStyle=orthogonalEdgeStyle;rounded=0;orthogonalLoop=1;jettySize=auto;html=1;exitX=0;exitY=0.5;exitDx=0;exitDy=0;entryX=1.005;entryY=0.507;entryDx=0;entryDy=0;entryPerimeter=0;" edge="1" parent="1" source="E5yM7RJLVlbiAVndkckx-5" target="E5yM7RJLVlbiAVndkckx-18">
          <mxGeometry relative="1" as="geometry">
            <Array as="points">
              <mxPoint x="460" y="679" />
              <mxPoint x="460" y="679" />
            </Array>
          </mxGeometry>
        </mxCell>
        <mxCell id="E5yM7RJLVlbiAVndkckx-5" value="&lt;div style=&quot;border-color: var(--border-color); color: rgb(51, 51, 51); background-color: rgb(245, 245, 245); font-family: Consolas, &amp;quot;Courier New&amp;quot;, monospace; font-size: 14px; line-height: 19px;&quot;&gt;&lt;div style=&quot;border-color: var(--border-color); line-height: 19px;&quot;&gt;&lt;i style=&quot;border-color: var(--border-color);&quot;&gt;&lt;b style=&quot;border-color: var(--border-color);&quot;&gt;&lt;u style=&quot;border-color: var(--border-color);&quot;&gt;Step 1: relabel-graph.py&lt;/u&gt;&lt;/b&gt;&lt;/i&gt;&lt;/div&gt;&lt;/div&gt;&lt;div style=&quot;border-color: var(--border-color); color: rgb(51, 51, 51); background-color: rgb(245, 245, 245); font-family: Consolas, &amp;quot;Courier New&amp;quot;, monospace; font-size: 14px; line-height: 19px;&quot;&gt;Thay đổi nhãn đỉnh&lt;/div&gt;&lt;div style=&quot;border-color: var(--border-color); color: rgb(51, 51, 51); background-color: rgb(245, 245, 245); font-family: Consolas, &amp;quot;Courier New&amp;quot;, monospace; font-size: 14px; line-height: 19px;&quot;&gt;(0 -&amp;gt; |V| - 1)&lt;/div&gt;" style="rounded=0;whiteSpace=wrap;html=1;" vertex="1" parent="1">
          <mxGeometry x="490" y="649" width="205" height="60" as="geometry" />
        </mxCell>
        <mxCell id="E5yM7RJLVlbiAVndkckx-12" style="edgeStyle=orthogonalEdgeStyle;rounded=0;orthogonalLoop=1;jettySize=auto;html=1;exitX=0.5;exitY=1;exitDx=0;exitDy=0;entryX=0.5;entryY=0;entryDx=0;entryDy=0;" edge="1" parent="1" source="E5yM7RJLVlbiAVndkckx-11" target="E5yM7RJLVlbiAVndkckx-5">
          <mxGeometry relative="1" as="geometry" />
        </mxCell>
        <mxCell id="E5yM7RJLVlbiAVndkckx-11" value="&lt;div style=&quot;border-color: var(--border-color); background-color: rgb(245, 245, 245); font-family: Consolas, &amp;quot;Courier New&amp;quot;, monospace; font-size: 14px; line-height: 19px;&quot;&gt;&lt;font color=&quot;#ff0000&quot;&gt;- Đồ thị amazon.&lt;br style=&quot;border-color: var(--border-color);&quot;&gt;&lt;/font&gt;&lt;/div&gt;&lt;div style=&quot;border-color: var(--border-color); background-color: rgb(245, 245, 245); font-family: Consolas, &amp;quot;Courier New&amp;quot;, monospace; font-size: 14px; line-height: 19px;&quot;&gt;&lt;div style=&quot;border-color: var(--border-color); line-height: 19px;&quot;&gt;&lt;i style=&quot;border-color: var(--border-color);&quot;&gt;&lt;b style=&quot;border-color: var(--border-color);&quot;&gt;&lt;font color=&quot;#ff0000&quot;&gt;com-amazon.ungraph.txt&lt;/font&gt;&lt;/b&gt;&lt;/i&gt;&lt;/div&gt;&lt;/div&gt;&lt;div style=&quot;border-color: var(--border-color); background-color: rgb(245, 245, 245); font-family: Consolas, &amp;quot;Courier New&amp;quot;, monospace; font-size: 14px; line-height: 19px;&quot;&gt;&lt;div style=&quot;border-color: var(--border-color); line-height: 19px;&quot;&gt;&lt;font color=&quot;#ff0000&quot;&gt;- Top5000 cộng đồng (theo Amazon).&lt;/font&gt;&lt;/div&gt;&lt;div style=&quot;border-color: var(--border-color); line-height: 19px;&quot;&gt;&lt;div style=&quot;border-color: var(--border-color); line-height: 19px;&quot;&gt;&lt;b style=&quot;border-color: var(--border-color);&quot;&gt;&lt;i style=&quot;border-color: var(--border-color);&quot;&gt;&lt;font color=&quot;#ff0000&quot;&gt;com-amazon.top5000.cmty.txt&lt;/font&gt;&lt;/i&gt;&lt;/b&gt;&lt;/div&gt;&lt;/div&gt;&lt;/div&gt;" style="shape=parallelogram;perimeter=parallelogramPerimeter;whiteSpace=wrap;html=1;fixedSize=1;" vertex="1" parent="1">
          <mxGeometry x="442.5" y="489" width="300" height="100" as="geometry" />
        </mxCell>
        <mxCell id="E5yM7RJLVlbiAVndkckx-32" style="edgeStyle=orthogonalEdgeStyle;rounded=0;orthogonalLoop=1;jettySize=auto;html=1;entryX=0;entryY=0.5;entryDx=0;entryDy=0;exitX=0.496;exitY=1.009;exitDx=0;exitDy=0;exitPerimeter=0;" edge="1" parent="1" source="E5yM7RJLVlbiAVndkckx-18" target="E5yM7RJLVlbiAVndkckx-9">
          <mxGeometry relative="1" as="geometry">
            <Array as="points">
              <mxPoint x="389" y="915" />
            </Array>
          </mxGeometry>
        </mxCell>
        <mxCell id="E5yM7RJLVlbiAVndkckx-33" style="edgeStyle=orthogonalEdgeStyle;rounded=0;orthogonalLoop=1;jettySize=auto;html=1;entryX=0;entryY=0.5;entryDx=0;entryDy=0;exitX=0.498;exitY=1.087;exitDx=0;exitDy=0;exitPerimeter=0;" edge="1" parent="1" source="E5yM7RJLVlbiAVndkckx-18" target="E5yM7RJLVlbiAVndkckx-14">
          <mxGeometry relative="1" as="geometry">
            <Array as="points">
              <mxPoint x="390" y="800" />
            </Array>
          </mxGeometry>
        </mxCell>
        <mxCell id="E5yM7RJLVlbiAVndkckx-18" value="&lt;b&gt;&lt;u style=&quot;font-size: 14px;&quot;&gt;&lt;i&gt;amazon.mace&lt;br&gt;&lt;/i&gt;&lt;/u&gt;&lt;/b&gt;" style="text;html=1;align=center;verticalAlign=middle;resizable=0;points=[];autosize=1;strokeColor=none;fillColor=none;" vertex="1" parent="1">
          <mxGeometry x="330" y="664" width="120" height="30" as="geometry" />
        </mxCell>
        <mxCell id="E5yM7RJLVlbiAVndkckx-43" style="edgeStyle=orthogonalEdgeStyle;rounded=0;orthogonalLoop=1;jettySize=auto;html=1;exitX=0.991;exitY=0.508;exitDx=0;exitDy=0;exitPerimeter=0;entryX=0.5;entryY=0;entryDx=0;entryDy=0;" edge="1" parent="1" source="E5yM7RJLVlbiAVndkckx-25" target="E5yM7RJLVlbiAVndkckx-17">
          <mxGeometry relative="1" as="geometry">
            <mxPoint x="1060" y="879" as="targetPoint" />
            <Array as="points">
              <mxPoint x="1060" y="679" />
            </Array>
          </mxGeometry>
        </mxCell>
        <mxCell id="E5yM7RJLVlbiAVndkckx-55" style="edgeStyle=orthogonalEdgeStyle;rounded=0;orthogonalLoop=1;jettySize=auto;html=1;entryX=1;entryY=0.5;entryDx=0;entryDy=0;exitX=0.991;exitY=0.484;exitDx=0;exitDy=0;exitPerimeter=0;" edge="1" parent="1" source="E5yM7RJLVlbiAVndkckx-25" target="E5yM7RJLVlbiAVndkckx-46">
          <mxGeometry relative="1" as="geometry">
            <Array as="points">
              <mxPoint x="1300" y="678" />
              <mxPoint x="1300" y="1600" />
            </Array>
          </mxGeometry>
        </mxCell>
        <mxCell id="E5yM7RJLVlbiAVndkckx-25" value="&lt;b&gt;&lt;u style=&quot;font-size: 14px;&quot;&gt;&lt;i&gt;amazon.communities&lt;/i&gt;&lt;/u&gt;&lt;/b&gt;" style="text;html=1;align=center;verticalAlign=middle;resizable=0;points=[];autosize=1;strokeColor=none;fillColor=none;" vertex="1" parent="1">
          <mxGeometry x="740" y="664" width="170" height="30" as="geometry" />
        </mxCell>
        <mxCell id="E5yM7RJLVlbiAVndkckx-60" value="&amp;nbsp;" style="swimlane;whiteSpace=wrap;html=1;" vertex="1" parent="1">
          <mxGeometry x="320" y="400" width="1040" height="1320" as="geometry" />
        </mxCell>
        <mxCell id="Qggfqx35Qw7xsqCI15YY-7" style="edgeStyle=orthogonalEdgeStyle;rounded=0;orthogonalLoop=1;jettySize=auto;html=1;exitX=0.5;exitY=1;exitDx=0;exitDy=0;entryX=0.505;entryY=0.043;entryDx=0;entryDy=0;entryPerimeter=0;" edge="1" parent="E5yM7RJLVlbiAVndkckx-60" source="E5yM7RJLVlbiAVndkckx-46" target="E5yM7RJLVlbiAVndkckx-57">
          <mxGeometry relative="1" as="geometry" />
        </mxCell>
        <mxCell id="E5yM7RJLVlbiAVndkckx-46" value="&lt;div style=&quot;border-color: var(--border-color); color: rgb(51, 51, 51); background-color: rgb(245, 245, 245); font-family: Consolas, &amp;quot;Courier New&amp;quot;, monospace; font-size: 14px; line-height: 19px;&quot;&gt;&lt;div style=&quot;border-color: var(--border-color); line-height: 19px;&quot;&gt;&lt;div style=&quot;line-height: 19px;&quot;&gt;&lt;b&gt;&lt;u&gt;&lt;i&gt;Step 9: grade clusters.py&lt;/i&gt;&lt;/u&gt;&lt;/b&gt;&lt;/div&gt;&lt;/div&gt;&lt;div style=&quot;border-color: var(--border-color); line-height: 19px;&quot;&gt;Đánh giá cụm&lt;/div&gt;&lt;/div&gt;" style="rounded=0;whiteSpace=wrap;html=1;" vertex="1" parent="E5yM7RJLVlbiAVndkckx-60">
          <mxGeometry x="380" y="1170" width="220" height="60" as="geometry" />
        </mxCell>
        <mxCell id="Qggfqx35Qw7xsqCI15YY-6" style="edgeStyle=orthogonalEdgeStyle;rounded=0;orthogonalLoop=1;jettySize=auto;html=1;exitX=0.5;exitY=1;exitDx=0;exitDy=0;entryX=0.502;entryY=0.083;entryDx=0;entryDy=0;entryPerimeter=0;" edge="1" parent="E5yM7RJLVlbiAVndkckx-60" source="E5yM7RJLVlbiAVndkckx-47" target="E5yM7RJLVlbiAVndkckx-51">
          <mxGeometry relative="1" as="geometry" />
        </mxCell>
        <mxCell id="E5yM7RJLVlbiAVndkckx-47" value="&lt;div style=&quot;border-color: var(--border-color); color: rgb(51, 51, 51); background-color: rgb(245, 245, 245); font-family: Consolas, &amp;quot;Courier New&amp;quot;, monospace; font-size: 14px; line-height: 19px;&quot;&gt;&lt;div style=&quot;border-color: var(--border-color); line-height: 19px;&quot;&gt;&lt;div style=&quot;line-height: 19px;&quot;&gt;&lt;b&gt;&lt;u&gt;&lt;i&gt;Step 8: triangle clusters.cpp&lt;/i&gt;&lt;/u&gt;&lt;/b&gt;&lt;/div&gt;&lt;/div&gt;&lt;div style=&quot;border-color: var(--border-color); line-height: 19px;&quot;&gt;Phân cụm TECTONIC&lt;/div&gt;&lt;/div&gt;" style="rounded=0;whiteSpace=wrap;html=1;" vertex="1" parent="E5yM7RJLVlbiAVndkckx-60">
          <mxGeometry x="375" y="1010" width="230" height="60" as="geometry" />
        </mxCell>
        <mxCell id="E5yM7RJLVlbiAVndkckx-50" style="edgeStyle=orthogonalEdgeStyle;rounded=0;orthogonalLoop=1;jettySize=auto;html=1;exitX=1;exitY=0.5;exitDx=0;exitDy=0;entryX=0;entryY=0.5;entryDx=0;entryDy=0;" edge="1" parent="E5yM7RJLVlbiAVndkckx-60" source="E5yM7RJLVlbiAVndkckx-49" target="E5yM7RJLVlbiAVndkckx-47">
          <mxGeometry relative="1" as="geometry" />
        </mxCell>
        <mxCell id="E5yM7RJLVlbiAVndkckx-49" value="&lt;b&gt;&lt;u style=&quot;font-size: 14px;&quot;&gt;&lt;i style=&quot;background-color: rgb(245, 245, 245);&quot;&gt;&lt;font color=&quot;#007fff&quot;&gt;numbers_of_nodes&lt;br&gt;threshold_value&lt;/font&gt;&lt;/i&gt;&lt;/u&gt;&lt;/b&gt;" style="shape=parallelogram;perimeter=parallelogramPerimeter;whiteSpace=wrap;html=1;fixedSize=1;" vertex="1" parent="E5yM7RJLVlbiAVndkckx-60">
          <mxGeometry x="110" y="950" width="160" height="60" as="geometry" />
        </mxCell>
        <mxCell id="E5yM7RJLVlbiAVndkckx-54" style="edgeStyle=orthogonalEdgeStyle;rounded=0;orthogonalLoop=1;jettySize=auto;html=1;entryX=0.5;entryY=0;entryDx=0;entryDy=0;" edge="1" parent="E5yM7RJLVlbiAVndkckx-60" source="E5yM7RJLVlbiAVndkckx-51" target="E5yM7RJLVlbiAVndkckx-46">
          <mxGeometry relative="1" as="geometry" />
        </mxCell>
        <mxCell id="E5yM7RJLVlbiAVndkckx-51" value="&lt;b&gt;&lt;u style=&quot;font-size: 14px;&quot;&gt;&lt;i&gt;amazon_clusters.txt&lt;/i&gt;&lt;/u&gt;&lt;/b&gt;" style="text;html=1;align=center;verticalAlign=middle;resizable=0;points=[];autosize=1;strokeColor=none;fillColor=none;" vertex="1" parent="E5yM7RJLVlbiAVndkckx-60">
          <mxGeometry x="410" y="1100" width="160" height="30" as="geometry" />
        </mxCell>
        <mxCell id="E5yM7RJLVlbiAVndkckx-57" value="&lt;b&gt;&lt;u style=&quot;font-size: 14px;&quot;&gt;&lt;i&gt;&lt;font color=&quot;#ff0000&quot;&gt;output.txt&lt;/font&gt;&lt;/i&gt;&lt;/u&gt;&lt;/b&gt;" style="text;html=1;align=center;verticalAlign=middle;resizable=0;points=[];autosize=1;strokeColor=none;fillColor=none;" vertex="1" parent="E5yM7RJLVlbiAVndkckx-60">
          <mxGeometry x="445" y="1270" width="90" height="30" as="geometry" />
        </mxCell>
        <mxCell id="E5yM7RJLVlbiAVndkckx-9" value="&lt;div style=&quot;border-color: var(--border-color); color: rgb(51, 51, 51); background-color: rgb(245, 245, 245); font-family: Consolas, &amp;quot;Courier New&amp;quot;, monospace; font-size: 14px; line-height: 19px;&quot;&gt;&lt;div style=&quot;border-color: var(--border-color); line-height: 19px;&quot;&gt;&lt;b&gt;&lt;i&gt;&lt;u&gt;Step 3: mace&lt;/u&gt;&lt;/i&gt;&lt;/b&gt;&lt;/div&gt;&lt;div style=&quot;border-color: var(--border-color); line-height: 19px;&quot;&gt;Tìm các tam giác&lt;/div&gt;&lt;/div&gt;" style="rounded=0;whiteSpace=wrap;html=1;" vertex="1" parent="E5yM7RJLVlbiAVndkckx-60">
          <mxGeometry x="197.5" y="485" width="150" height="60" as="geometry" />
        </mxCell>
        <mxCell id="E5yM7RJLVlbiAVndkckx-14" value="&lt;div style=&quot;border-color: var(--border-color); color: rgb(51, 51, 51); background-color: rgb(245, 245, 245); font-family: Consolas, &amp;quot;Courier New&amp;quot;, monospace; font-size: 14px; line-height: 19px;&quot;&gt;&lt;div style=&quot;border-color: var(--border-color); line-height: 19px;&quot;&gt;&lt;div style=&quot;line-height: 19px;&quot;&gt;&lt;b&gt;&lt;u&gt;&lt;i&gt;Step 2: mace-to-list.py&lt;/i&gt;&lt;/u&gt;&lt;/b&gt;&lt;/div&gt;&lt;/div&gt;&lt;div style=&quot;border-color: var(--border-color); line-height: 19px;&quot;&gt;Tìm các cạnh&lt;/div&gt;&lt;/div&gt;" style="rounded=0;whiteSpace=wrap;html=1;" vertex="1" parent="E5yM7RJLVlbiAVndkckx-60">
          <mxGeometry x="180" y="370" width="185" height="60" as="geometry" />
        </mxCell>
        <mxCell id="IQPfTOYcMNGl2YZVkMfV-1" style="edgeStyle=orthogonalEdgeStyle;rounded=0;orthogonalLoop=1;jettySize=auto;html=1;entryX=1;entryY=0.5;entryDx=0;entryDy=0;" edge="1" parent="E5yM7RJLVlbiAVndkckx-60" source="E5yM7RJLVlbiAVndkckx-22" target="IQPfTOYcMNGl2YZVkMfV-3">
          <mxGeometry relative="1" as="geometry">
            <mxPoint x="590" y="700" as="targetPoint" />
            <Array as="points">
              <mxPoint x="940" y="400" />
              <mxPoint x="940" y="720" />
            </Array>
          </mxGeometry>
        </mxCell>
        <mxCell id="E5yM7RJLVlbiAVndkckx-22" value="&lt;b&gt;&lt;u style=&quot;font-size: 14px;&quot;&gt;&lt;i&gt;amazon.edges&lt;/i&gt;&lt;/u&gt;&lt;/b&gt;" style="text;html=1;align=center;verticalAlign=middle;resizable=0;points=[];autosize=1;strokeColor=none;fillColor=none;" vertex="1" parent="E5yM7RJLVlbiAVndkckx-60">
          <mxGeometry x="430" y="385" width="120" height="30" as="geometry" />
        </mxCell>
        <mxCell id="E5yM7RJLVlbiAVndkckx-24" style="edgeStyle=orthogonalEdgeStyle;rounded=0;orthogonalLoop=1;jettySize=auto;html=1;exitX=1;exitY=0.5;exitDx=0;exitDy=0;entryX=0.013;entryY=0.473;entryDx=0;entryDy=0;entryPerimeter=0;" edge="1" parent="E5yM7RJLVlbiAVndkckx-60" source="E5yM7RJLVlbiAVndkckx-14" target="E5yM7RJLVlbiAVndkckx-22">
          <mxGeometry relative="1" as="geometry">
            <Array as="points">
              <mxPoint x="400" y="400" />
              <mxPoint x="400" y="399" />
            </Array>
          </mxGeometry>
        </mxCell>
        <mxCell id="IQPfTOYcMNGl2YZVkMfV-4" style="edgeStyle=orthogonalEdgeStyle;rounded=0;orthogonalLoop=1;jettySize=auto;html=1;entryX=0.5;entryY=0;entryDx=0;entryDy=0;" edge="1" parent="E5yM7RJLVlbiAVndkckx-60" source="E5yM7RJLVlbiAVndkckx-21" target="IQPfTOYcMNGl2YZVkMfV-3">
          <mxGeometry relative="1" as="geometry" />
        </mxCell>
        <mxCell id="E5yM7RJLVlbiAVndkckx-21" value="&lt;b&gt;&lt;u style=&quot;font-size: 14px;&quot;&gt;&lt;i&gt;amazon.triangles&lt;/i&gt;&lt;/u&gt;&lt;/b&gt;" style="text;html=1;align=center;verticalAlign=middle;resizable=0;points=[];autosize=1;strokeColor=none;fillColor=none;" vertex="1" parent="E5yM7RJLVlbiAVndkckx-60">
          <mxGeometry x="420" y="500" width="140" height="30" as="geometry" />
        </mxCell>
        <mxCell id="E5yM7RJLVlbiAVndkckx-23" style="edgeStyle=orthogonalEdgeStyle;rounded=0;orthogonalLoop=1;jettySize=auto;html=1;exitX=1;exitY=0.5;exitDx=0;exitDy=0;" edge="1" parent="E5yM7RJLVlbiAVndkckx-60" source="E5yM7RJLVlbiAVndkckx-9" target="E5yM7RJLVlbiAVndkckx-21">
          <mxGeometry relative="1" as="geometry">
            <Array as="points">
              <mxPoint x="500" y="515" />
            </Array>
          </mxGeometry>
        </mxCell>
        <mxCell id="IQPfTOYcMNGl2YZVkMfV-9" style="edgeStyle=orthogonalEdgeStyle;rounded=0;orthogonalLoop=1;jettySize=auto;html=1;entryX=0.516;entryY=0.033;entryDx=0;entryDy=0;entryPerimeter=0;" edge="1" parent="E5yM7RJLVlbiAVndkckx-60" source="IQPfTOYcMNGl2YZVkMfV-3" target="IQPfTOYcMNGl2YZVkMfV-8">
          <mxGeometry relative="1" as="geometry" />
        </mxCell>
        <mxCell id="IQPfTOYcMNGl2YZVkMfV-10" style="edgeStyle=orthogonalEdgeStyle;rounded=0;orthogonalLoop=1;jettySize=auto;html=1;entryX=0.495;entryY=-0.073;entryDx=0;entryDy=0;entryPerimeter=0;" edge="1" parent="E5yM7RJLVlbiAVndkckx-60" source="IQPfTOYcMNGl2YZVkMfV-3" target="IQPfTOYcMNGl2YZVkMfV-7">
          <mxGeometry relative="1" as="geometry" />
        </mxCell>
        <mxCell id="IQPfTOYcMNGl2YZVkMfV-3" value="&lt;div style=&quot;border-color: var(--border-color); color: rgb(51, 51, 51); background-color: rgb(245, 245, 245); font-family: Consolas, &amp;quot;Courier New&amp;quot;, monospace; font-size: 14px; line-height: 19px;&quot;&gt;&lt;div style=&quot;border-color: var(--border-color); line-height: 19px;&quot;&gt;&lt;div style=&quot;line-height: 19px;&quot;&gt;&lt;b&gt;&lt;u&gt;&lt;i&gt;Step 6: weighted-edges.py&lt;/i&gt;&lt;/u&gt;&lt;/b&gt;&lt;/div&gt;&lt;/div&gt;&lt;div style=&quot;border-color: var(--border-color); line-height: 19px;&quot;&gt;Reweighting các cạnh&lt;/div&gt;&lt;/div&gt;" style="rounded=0;whiteSpace=wrap;html=1;" vertex="1" parent="E5yM7RJLVlbiAVndkckx-60">
          <mxGeometry x="375" y="690" width="230" height="60" as="geometry" />
        </mxCell>
        <mxCell id="IQPfTOYcMNGl2YZVkMfV-13" style="edgeStyle=orthogonalEdgeStyle;rounded=0;orthogonalLoop=1;jettySize=auto;html=1;entryX=0.503;entryY=0.063;entryDx=0;entryDy=0;entryPerimeter=0;" edge="1" parent="E5yM7RJLVlbiAVndkckx-60" source="IQPfTOYcMNGl2YZVkMfV-5" target="IQPfTOYcMNGl2YZVkMfV-12">
          <mxGeometry relative="1" as="geometry" />
        </mxCell>
        <mxCell id="IQPfTOYcMNGl2YZVkMfV-5" value="&lt;div style=&quot;border-color: var(--border-color); color: rgb(51, 51, 51); background-color: rgb(245, 245, 245); font-family: Consolas, &amp;quot;Courier New&amp;quot;, monospace; font-size: 14px; line-height: 19px;&quot;&gt;&lt;div style=&quot;border-color: var(--border-color); line-height: 19px;&quot;&gt;&lt;div style=&quot;line-height: 19px;&quot;&gt;&lt;b&gt;&lt;u&gt;&lt;i&gt;Step 7: normalized-edges.py&lt;/i&gt;&lt;/u&gt;&lt;/b&gt;&lt;/div&gt;&lt;/div&gt;&lt;div style=&quot;border-color: var(--border-color); line-height: 19px;&quot;&gt;Chuẩn hóa các cạnh&lt;/div&gt;&lt;/div&gt;" style="rounded=0;whiteSpace=wrap;html=1;" vertex="1" parent="E5yM7RJLVlbiAVndkckx-60">
          <mxGeometry x="375" y="850" width="230" height="60" as="geometry" />
        </mxCell>
        <mxCell id="IQPfTOYcMNGl2YZVkMfV-11" style="edgeStyle=orthogonalEdgeStyle;rounded=0;orthogonalLoop=1;jettySize=auto;html=1;entryX=0.5;entryY=0;entryDx=0;entryDy=0;" edge="1" parent="E5yM7RJLVlbiAVndkckx-60" source="IQPfTOYcMNGl2YZVkMfV-7" target="IQPfTOYcMNGl2YZVkMfV-5">
          <mxGeometry relative="1" as="geometry" />
        </mxCell>
        <mxCell id="IQPfTOYcMNGl2YZVkMfV-7" value="&lt;b&gt;&lt;u style=&quot;font-size: 14px;&quot;&gt;&lt;i&gt;amazon.out.mixed&lt;/i&gt;&lt;/u&gt;&lt;/b&gt;" style="text;html=1;align=center;verticalAlign=middle;resizable=0;points=[];autosize=1;strokeColor=none;fillColor=none;" vertex="1" parent="E5yM7RJLVlbiAVndkckx-60">
          <mxGeometry x="415" y="790" width="150" height="30" as="geometry" />
        </mxCell>
        <mxCell id="IQPfTOYcMNGl2YZVkMfV-8" value="&lt;b&gt;&lt;u style=&quot;font-size: 14px;&quot;&gt;&lt;i&gt;amazon.out.graph&lt;/i&gt;&lt;/u&gt;&lt;/b&gt;" style="text;html=1;align=center;verticalAlign=middle;resizable=0;points=[];autosize=1;strokeColor=none;fillColor=none;" vertex="1" parent="E5yM7RJLVlbiAVndkckx-60">
          <mxGeometry x="185" y="790" width="140" height="30" as="geometry" />
        </mxCell>
        <mxCell id="IQPfTOYcMNGl2YZVkMfV-14" style="edgeStyle=orthogonalEdgeStyle;rounded=0;orthogonalLoop=1;jettySize=auto;html=1;entryX=0.5;entryY=0;entryDx=0;entryDy=0;" edge="1" parent="E5yM7RJLVlbiAVndkckx-60" target="E5yM7RJLVlbiAVndkckx-47" source="IQPfTOYcMNGl2YZVkMfV-12">
          <mxGeometry relative="1" as="geometry">
            <mxPoint x="490" y="990" as="sourcePoint" />
            <Array as="points" />
          </mxGeometry>
        </mxCell>
        <mxCell id="IQPfTOYcMNGl2YZVkMfV-12" value="&lt;b&gt;&lt;u style=&quot;font-size: 14px;&quot;&gt;&lt;i&gt;amazon.out.norm&lt;/i&gt;&lt;/u&gt;&lt;/b&gt;" style="text;html=1;align=center;verticalAlign=middle;resizable=0;points=[];autosize=1;strokeColor=none;fillColor=none;" vertex="1" parent="E5yM7RJLVlbiAVndkckx-60">
          <mxGeometry x="420" y="940" width="140" height="30" as="geometry" />
        </mxCell>
        <mxCell id="E5yM7RJLVlbiAVndkckx-17" value="&lt;div style=&quot;border-color: var(--border-color); color: rgb(51, 51, 51); background-color: rgb(245, 245, 245); font-family: Consolas, &amp;quot;Courier New&amp;quot;, monospace; font-size: 14px; line-height: 19px;&quot;&gt;&lt;div style=&quot;border-color: var(--border-color); line-height: 19px;&quot;&gt;&lt;div style=&quot;line-height: 19px;&quot;&gt;&lt;b&gt;&lt;u&gt;&lt;i&gt;Step 4-5: community-stats.py&lt;/i&gt;&lt;/u&gt;&lt;/b&gt;&lt;/div&gt;&lt;/div&gt;&lt;div style=&quot;border-color: var(--border-color); line-height: 19px;&quot;&gt;Thống kê cạnh và tam giác&lt;/div&gt;&lt;/div&gt;" style="rounded=0;whiteSpace=wrap;html=1;" vertex="1" parent="E5yM7RJLVlbiAVndkckx-60">
          <mxGeometry x="629.54" y="430" width="220" height="60" as="geometry" />
        </mxCell>
        <mxCell id="E5yM7RJLVlbiAVndkckx-42" style="edgeStyle=orthogonalEdgeStyle;rounded=0;orthogonalLoop=1;jettySize=auto;html=1;entryX=0;entryY=0.5;entryDx=0;entryDy=0;exitX=0.993;exitY=0.478;exitDx=0;exitDy=0;exitPerimeter=0;" edge="1" parent="E5yM7RJLVlbiAVndkckx-60" source="E5yM7RJLVlbiAVndkckx-22" target="E5yM7RJLVlbiAVndkckx-17">
          <mxGeometry relative="1" as="geometry">
            <Array as="points">
              <mxPoint x="590" y="399" />
              <mxPoint x="590" y="460" />
            </Array>
          </mxGeometry>
        </mxCell>
        <mxCell id="E5yM7RJLVlbiAVndkckx-36" value="&lt;b&gt;&lt;u style=&quot;font-size: 14px;&quot;&gt;&lt;i&gt;amazon.edges.stats&lt;/i&gt;&lt;/u&gt;&lt;/b&gt;" style="text;html=1;align=center;verticalAlign=middle;resizable=0;points=[];autosize=1;strokeColor=none;fillColor=none;" vertex="1" parent="E5yM7RJLVlbiAVndkckx-60">
          <mxGeometry x="769.54" y="610" width="160" height="30" as="geometry" />
        </mxCell>
        <mxCell id="E5yM7RJLVlbiAVndkckx-45" style="edgeStyle=orthogonalEdgeStyle;rounded=0;orthogonalLoop=1;jettySize=auto;html=1;exitX=0.5;exitY=1;exitDx=0;exitDy=0;entryX=0.502;entryY=0.073;entryDx=0;entryDy=0;entryPerimeter=0;" edge="1" parent="E5yM7RJLVlbiAVndkckx-60" source="E5yM7RJLVlbiAVndkckx-17" target="E5yM7RJLVlbiAVndkckx-36">
          <mxGeometry relative="1" as="geometry">
            <Array as="points">
              <mxPoint x="739.54" y="550" />
              <mxPoint x="849.54" y="550" />
              <mxPoint x="849.54" y="612" />
            </Array>
          </mxGeometry>
        </mxCell>
        <mxCell id="E5yM7RJLVlbiAVndkckx-37" value="&lt;b&gt;&lt;u style=&quot;font-size: 14px;&quot;&gt;&lt;i&gt;amazon.triangles.stats&lt;/i&gt;&lt;/u&gt;&lt;/b&gt;" style="text;html=1;align=center;verticalAlign=middle;resizable=0;points=[];autosize=1;strokeColor=none;fillColor=none;" vertex="1" parent="E5yM7RJLVlbiAVndkckx-60">
          <mxGeometry x="569.54" y="610" width="170" height="30" as="geometry" />
        </mxCell>
        <mxCell id="sWgSkRnBWkGWQVfPgW7k-5" style="edgeStyle=orthogonalEdgeStyle;rounded=0;orthogonalLoop=1;jettySize=auto;html=1;entryX=0;entryY=0.5;entryDx=0;entryDy=0;exitX=1.003;exitY=0.512;exitDx=0;exitDy=0;exitPerimeter=0;" edge="1" parent="E5yM7RJLVlbiAVndkckx-60" source="E5yM7RJLVlbiAVndkckx-21" target="E5yM7RJLVlbiAVndkckx-17">
          <mxGeometry relative="1" as="geometry">
            <Array as="points">
              <mxPoint x="590" y="515" />
              <mxPoint x="590" y="460" />
            </Array>
            <mxPoint x="565" y="476.96000000000004" as="sourcePoint" />
            <mxPoint x="639.54" y="470" as="targetPoint" />
          </mxGeometry>
        </mxCell>
        <mxCell id="E5yM7RJLVlbiAVndkckx-44" style="edgeStyle=orthogonalEdgeStyle;rounded=0;orthogonalLoop=1;jettySize=auto;html=1;exitX=0.5;exitY=1;exitDx=0;exitDy=0;entryX=0.471;entryY=0;entryDx=0;entryDy=0;entryPerimeter=0;" edge="1" parent="E5yM7RJLVlbiAVndkckx-60" source="E5yM7RJLVlbiAVndkckx-17" target="E5yM7RJLVlbiAVndkckx-37">
          <mxGeometry relative="1" as="geometry">
            <Array as="points">
              <mxPoint x="739.54" y="550" />
              <mxPoint x="649.54" y="550" />
              <mxPoint x="649.54" y="610" />
            </Array>
          </mxGeometry>
        </mxCell>
      </root>
    </mxGraphModel>
  </diagram>
</mxfile>
